<svg width="150" height="32" viewBox="0 0 150 32" fill="none" xmlns="http://www.w3.org/2000/svg">
<path d="M0 26.5364H19.8091V30.6455H0V26.5364ZM143.255 13.3455L149.5 6.45455H144.845L139.727 12.1818V6.45455H136.018V20.9364H139.745V14.8364L145.218 20.9364H150L143.255 13.3455ZM21.9909 14.3C21.8909 17.0273 21.5455 17.5455 20.0364 17.5455V20.9455H20.6C24.3909 20.9455 25.2909 18.9909 25.4273 14.6364L25.5909 9.81818H29.0909V20.9364H32.8V6.45455H22.2455L21.9909 14.3ZM5.89091 16.7909H13.7091L15.0091 20.9364H19.3455L13.5 3.51818C12.9364 1.83636 12.2818 0.5 10.0455 0.5C7.80909 0.5 7.12727 1.83636 6.52727 3.51818L0.4 20.9364H4.47273L5.89091 16.7909ZM9.85455 5.04545H9.95455L12.5727 13.3H7.06364L9.85455 5.04545ZM96.5 8.50909H92.3636V4.41818H101.964V0.781819H88.4727V20.9364H96.5C100.945 20.9364 103.5 18.7182 103.5 14.6636C103.5 10.8182 100.909 8.50909 96.5 8.50909ZM96.3091 17.2909H92.3636V12.0545H96.3091C98.3636 12.0545 99.5182 12.9636 99.5182 14.6727C99.5182 16.3818 98.3636 17.2909 96.3091 17.2909ZM59.6273 6.11818V0.754545H55.9273V6.11818C53.9845 6.18227 52.1465 7.01482 50.8169 8.43291C49.4875 9.85109 48.7751 11.7389 48.8364 13.6818C48.7702 15.6287 49.48 17.5222 50.8098 18.9457C52.1395 20.3694 53.9804 21.2064 55.9273 21.2727V26.7273H59.6364V21.2727C60.6007 21.241 61.5495 21.0195 62.428 20.6205C63.3066 20.2217 64.0979 19.6535 64.7566 18.9484C65.4153 18.2432 65.9284 17.4151 66.2665 16.5114C66.6047 15.6076 66.7613 14.6461 66.7273 13.6818C66.7662 12.7169 66.6125 11.7539 66.2753 10.8491C65.938 9.94418 65.4239 9.11555 64.763 8.41146C64.1021 7.70746 63.3076 7.142 62.4258 6.74827C61.544 6.35455 60.5927 6.14036 59.6273 6.11818ZM55.9364 17.7727C54.9547 17.6649 54.0548 17.1755 53.4307 16.4103C52.8065 15.645 52.5082 14.6651 52.6 13.6818C52.52 12.701 52.8226 11.7273 53.4446 10.9647C54.0665 10.2021 54.9595 9.70982 55.9364 9.59091V17.7727ZM59.6455 17.7727V9.59091C60.6223 9.70982 61.5153 10.2021 62.1372 10.9647C62.7592 11.7273 63.0618 12.701 62.9818 13.6818C63.0688 14.6641 62.7687 15.6415 62.1455 16.4057C61.5223 17.1699 60.6252 17.6605 59.6455 17.7727ZM80.6273 16.4909V11.6091C80.6273 8.04545 78.3636 5.81818 74.5636 5.81818C70.7636 5.81818 68.5455 8.18182 68.3636 10.6455H72.1182C72.2455 10.1182 72.8091 9.18182 74.5546 9.18182C74.8809 9.13982 75.2118 9.17418 75.5218 9.28236C75.8327 9.39055 76.1136 9.56936 76.3427 9.80491C76.5718 10.0404 76.7436 10.326 76.8436 10.6391C76.9436 10.9523 76.9691 11.2844 76.9182 11.6091H73.2818C69.9909 11.6091 68.0364 13.3455 68.0364 16.2182C68.0107 16.9037 68.1293 17.587 68.3844 18.2238C68.6395 18.8606 69.0256 19.4367 69.5175 19.9149C70.0093 20.3931 70.5961 20.7626 71.2399 20.9997C71.8836 21.2367 72.57 21.3359 73.2545 21.2909C74.0274 21.3315 74.7982 21.1811 75.4991 20.8529C76.2 20.5246 76.8091 20.0288 77.2727 19.4091C77.5745 19.9195 78.0145 20.3339 78.5427 20.6042C79.07 20.8745 79.6636 20.9897 80.2545 20.9364H81.5364V17.5909C80.9091 17.5909 80.6273 17.2909 80.6273 16.4909ZM76.9182 15.5818C76.9336 15.9399 76.8727 16.2972 76.7391 16.63C76.6064 16.9628 76.4045 17.2637 76.1473 17.5128C75.8891 17.7619 75.5818 17.9535 75.2445 18.0752C74.9073 18.1967 74.5482 18.2455 74.1909 18.2182C72.8545 18.2182 71.8 17.7364 71.8 16.2909C71.8 14.8455 72.9727 14.6364 73.9636 14.6364H76.9182V15.5818ZM42.0364 10.8545H39.3727V6.45455H35.6636V20.9364H42.1C46.1273 20.9364 47.5545 18.3182 47.5545 15.8455C47.5727 12.6545 45.5727 10.8545 42.0364 10.8545ZM41.7636 17.7727H39.3727V14.1364H41.7636C43.0455 14.1364 43.8182 14.7182 43.8182 15.9545C43.8182 17.1909 43.0818 17.7727 41.7636 17.7727ZM117.655 16.4909V11.6091C117.655 8.04545 115.391 5.81818 111.591 5.81818C107.791 5.81818 105.573 8.18182 105.391 10.6455H109.145C109.273 10.1182 109.836 9.18182 111.582 9.18182C111.908 9.13982 112.239 9.17418 112.549 9.28236C112.86 9.39055 113.141 9.56936 113.37 9.80491C113.599 10.0404 113.771 10.326 113.871 10.6391C113.971 10.9523 113.996 11.2844 113.945 11.6091H110.309C107.018 11.6091 105.064 13.3455 105.064 16.2182C105.038 16.9037 105.156 17.587 105.412 18.2238C105.666 18.8606 106.053 19.4367 106.545 19.9149C107.036 20.3931 107.624 20.7626 108.267 20.9997C108.911 21.2367 109.597 21.3359 110.282 21.2909C111.062 21.3392 111.842 21.1925 112.552 20.864C113.261 20.5355 113.877 20.0355 114.345 19.4091C114.643 19.9106 115.075 20.3193 115.592 20.5891C116.109 20.8589 116.691 20.9792 117.273 20.9364H118.555V17.5909C117.909 17.5909 117.655 17.2909 117.655 16.4909ZM113.964 15.5818C113.977 15.9395 113.915 16.2961 113.782 16.6283C113.648 16.9605 113.446 17.2607 113.189 17.5095C112.932 17.7583 112.625 17.95 112.288 18.0722C111.952 18.1943 111.594 18.244 111.236 18.2182C109.9 18.2182 108.845 17.7364 108.845 16.2909C108.845 14.8455 110.018 14.6364 111.009 14.6364H113.964V15.5818ZM129.5 11.8455H124.382V6.45455H120.673V20.9455H124.382V15.2364H129.5V20.9364H133.209V6.45455H129.5V11.8455Z" fill="white"/>
</svg>
