<svg width="150" height="79" viewBox="0 0 150 79" fill="none" xmlns="http://www.w3.org/2000/svg">
    <path d="M27.3511 1.09473C26.7688 0.639268 27.3191 -0.252053 27.9882 0.0677528C37.8775 4.79443 59.5553 15.2747 65.4499 19.1033C65.7482 19.2971 65.794 19.6912 65.572 19.967L65.1613 20.4769C63.4696 22.5771 61.9294 24.8023 60.5574 27.1364L59.4031 29.1002C59.2175 29.416 58.7949 29.5035 58.4905 29.295C53.4403 25.8364 47.3025 23.8087 40.6834 23.8087C30.1652 23.8087 20.8623 28.929 15.2077 36.7749C14.1738 38.2095 14.1737 40.1239 15.2088 41.5576C20.8678 49.3962 30.2146 54.5144 40.7203 54.5246C47.4736 54.5169 53.7246 52.3984 58.8285 48.8035L58.8484 48.8373C62.4848 46.2863 65.5417 42.9869 67.7868 39.1676C67.7872 39.167 67.7879 39.1666 67.7886 39.1666C67.7893 39.1666 67.79 39.1662 67.7903 39.1656L71.4059 33.0146C78.9423 20.1932 93.0591 11.5224 109.248 11.5224L109.317 11.5224C125.506 11.5224 139.623 20.1932 147.159 33.0146L149.329 36.7058C150.224 38.2282 150.224 40.1051 149.329 41.6275L147.159 45.3188C139.623 58.1402 125.506 66.811 109.317 66.8111L122.649 77.2386C123.231 77.6941 122.681 78.5854 122.012 78.2656C112.123 73.5389 90.4447 63.0587 84.5501 59.23C84.2518 59.0362 84.206 58.6421 84.428 58.3664L84.8388 57.8565C86.5304 55.7562 88.0706 53.5311 89.4426 51.197L90.5969 49.2332C90.7825 48.9173 91.2051 48.8298 91.5095 49.0383C96.5597 52.497 102.698 54.5247 109.317 54.5247C119.835 54.5247 129.138 49.4044 134.792 41.5584C135.826 40.1238 135.826 38.2095 134.791 36.7757C129.132 28.9371 119.785 23.8189 109.28 23.8088C102.526 23.8164 96.2754 25.9349 91.1715 29.5299L91.1516 29.496C87.5152 32.047 84.4583 35.3464 82.2132 39.1657C82.2128 39.1663 82.2121 39.1667 82.2114 39.1667C82.2107 39.1667 82.21 39.1671 82.2097 39.1677L78.5941 45.3187C71.0577 58.1401 56.9409 66.811 40.7516 66.811H40.6834C24.494 66.811 10.3773 58.1401 2.84087 45.3188L0.671143 41.6275C-0.223714 40.1051 -0.223714 38.2282 0.671142 36.7058L2.84086 33.0145C10.3772 20.1932 24.494 11.5223 40.6834 11.5223L27.3511 1.09473Z" fill="#8A8CD9"/>
</svg>
