<svg width="123" height="34" viewBox="0 0 123 34" fill="none" xmlns="http://www.w3.org/2000/svg">
<path d="M34 27.574C34 31.705 31.705 34 27.574 34H6.426C2.295 34 0 31.705 0 27.574V6.426C0 2.295 2.295 0 6.426 0H27.5825C31.705 0 34 2.295 34 6.426V27.574Z" fill="#FFE600"/>
<path fill-rule="evenodd" clip-rule="evenodd" d="M21.8617 15.3418V12.0949L23.0343 10.9214V13.7349L24.0549 14.7546L28.1598 10.6497L29.1716 11.6606C29.1629 10.8961 29.01 8.67759 27.1314 6.83307C25.1086 4.87845 22.9155 5.76183 22.1675 6.50977L18.0704 10.6069L19.1163 11.6528L17.0001 13.7856L14.8829 11.6694L15.9288 10.6243L11.8317 6.52725C11.0838 5.77931 8.89065 4.89505 6.86788 6.84967C4.98928 8.69419 4.83637 10.9127 4.82764 11.6781L5.83946 10.6663L9.94441 14.7721L10.965 13.7524V10.9389L12.1376 12.1115V15.3584L13.7864 16.9993L5.66034 25.1254L8.87405 28.3295L17.0001 20.2122L25.1252 28.3382L28.3389 25.1332L20.2129 16.9993L21.8617 15.3418Z" fill="#2B2D34"/>
<path fill-rule="evenodd" clip-rule="evenodd" d="M39.6699 18.4199H45.7985V20.3492H41.9653V22.33H43.2401C44.0982 22.33 45.2035 22.4323 46.0362 23.2484C46.3936 23.6049 46.8357 24.2593 46.8357 25.3131C46.8357 25.6311 46.7964 25.9361 46.7203 26.2209C46.5928 26.6962 46.3612 27.1139 46.0362 27.4381C45.8151 27.6591 45.5643 27.8286 45.2891 27.9571C45.1642 28.0148 45.034 28.0646 44.8985 28.1074C44.8321 28.1283 44.7649 28.1476 44.6958 28.165C44.196 28.2917 43.6386 28.3311 43.0444 28.3311H39.6699V18.4199ZM42.8662 26.4865C43.1807 26.4865 43.7417 26.4612 44.0982 26.172C44.1672 26.1126 44.2852 25.9955 44.3717 25.8094C44.4346 25.6757 44.4809 25.5062 44.4809 25.2965C44.4809 25.2213 44.4748 25.1505 44.4643 25.0841C44.4529 25.0134 44.4354 24.9478 44.4145 24.8867C44.3813 24.7906 44.3376 24.7067 44.2887 24.6341C44.2423 24.566 44.1908 24.5083 44.1392 24.4603C44.1165 24.4393 44.0938 24.4201 44.0711 24.4026L44.0388 24.3781C43.6823 24.123 43.1038 24.1151 42.8662 24.1151H41.9566V26.4953H42.8662V26.4865ZM55.1478 21.7009H53.0062V22.4489C52.5929 21.887 52.0433 21.6424 51.5575 21.5428C51.3242 21.4947 51.1058 21.4799 50.9232 21.4799C50.0057 21.4799 49.1983 21.811 48.6199 22.3894C48.0083 23.0011 47.5915 23.9535 47.5915 25.0667C47.5915 25.9422 47.8632 26.809 48.5605 27.549C49.2918 28.3223 50.0905 28.56 51.0429 28.56C51.3233 28.56 51.6772 28.525 52.0328 28.373C52.3762 28.2262 52.7222 27.9702 53.0062 27.5316V28.3311H55.1478V21.7009ZM49.7934 25.0072C49.7934 24.6796 49.8755 24.414 49.9865 24.2043C50.0774 24.0339 50.1866 23.9002 50.2862 23.8006C50.5667 23.5201 50.9913 23.3244 51.4509 23.3331C51.8415 23.3331 52.3177 23.4773 52.6401 23.7918C52.6995 23.8478 52.7546 23.9089 52.8044 23.9745C52.8612 24.0505 52.911 24.1326 52.9538 24.2191C53.0709 24.4542 53.1338 24.725 53.1338 25.0072C53.1338 25.5769 52.8952 25.9937 52.6148 26.2567C52.475 26.3965 52.3055 26.511 52.1167 26.5905C51.9271 26.6709 51.7183 26.7155 51.5016 26.7155C50.9913 26.7155 50.5326 26.5119 50.2346 26.1973C50.0476 25.985 49.7934 25.6023 49.7934 25.0072ZM56.4401 21.7009H58.5817V24.0042H60.9793V21.7009H63.1209V28.3311H60.9793V25.7299H58.5817V28.3311H56.4401V21.7009ZM66.5461 21.7009H64.4045V28.3311H66.5461V25.39L68.8074 28.3311H71.5703L68.5357 24.7783L71.3745 21.7009H68.7139L66.5461 24.3362V21.7009ZM43.1624 5.66992C44.0213 5.66992 44.9737 5.78875 45.7636 6.48602C46.6137 7.22523 46.7326 8.21171 46.7326 8.8915C46.7326 10.141 46.2564 10.8383 45.8824 11.2288C45.0925 12.0283 44.0554 12.1043 43.3581 12.1043H41.9644V15.5811H39.6778V5.66992H43.1624ZM41.9557 10.2345H42.7718C42.8932 10.2345 43.0479 10.2319 43.2139 10.2083C43.4804 10.1707 43.7749 10.0798 44.0047 9.86051C44.2083 9.65604 44.3786 9.30829 44.3786 8.88276C44.3786 8.69228 44.3481 8.51665 44.293 8.36287C44.2284 8.18113 44.1288 8.02822 44.0047 7.91375C43.6639 7.59133 43.1711 7.53978 42.729 7.53978H41.9557V10.2345ZM54.4593 8.95091H52.3177V9.69886C52.0241 9.29955 51.6615 9.06014 51.3024 8.91946C50.9127 8.76655 50.5265 8.72985 50.2346 8.72985C49.3172 8.72985 48.5098 9.06101 47.9314 9.63944C47.3197 10.2511 46.903 11.2035 46.903 12.3167C46.903 12.8829 47.0165 13.4456 47.2857 13.9725C47.4325 14.2608 47.6256 14.5378 47.872 14.799C48.6033 15.5723 49.4019 15.81 50.3543 15.81C50.6339 15.81 50.9852 15.7759 51.3391 15.6256C51.6842 15.4788 52.032 15.2228 52.3177 14.7816V15.5811H54.4593V8.95091ZM49.1048 12.2572C49.1048 11.6622 49.3766 11.2716 49.5977 11.0506C49.8781 10.7701 50.3115 10.5744 50.7624 10.5831C50.8777 10.5831 51 10.5962 51.1241 10.6216C51.1966 10.6364 51.2692 10.6556 51.3417 10.6801C51.5645 10.7552 51.7795 10.8741 51.9516 11.0418C52.1159 11.1974 52.2434 11.3922 52.3273 11.6115C52.3631 11.705 52.3911 11.8029 52.4112 11.9034C52.4199 11.9471 52.4269 11.9916 52.4322 12.0371C52.4365 12.0729 52.4391 12.1096 52.4409 12.1463C52.4435 12.183 52.4453 12.2197 52.4453 12.2572C52.4453 12.8269 52.2067 13.2437 51.9262 13.5067C51.7795 13.6535 51.6003 13.7724 51.4002 13.8527C51.3225 13.8842 51.2412 13.9095 51.1573 13.9279L51.0647 13.9462L50.9782 13.9567C50.924 13.9628 50.869 13.9655 50.8131 13.9655C50.5903 13.9655 50.3771 13.9261 50.1822 13.8562C49.9323 13.7662 49.7139 13.6247 49.5461 13.4473C49.3591 13.235 49.1048 12.8523 49.1048 12.2572ZM57.8932 8.95091V12.7422L60.7155 8.95091H62.705V15.5811H60.5625V11.7304L57.7403 15.5811H55.7516V8.95091H57.8932ZM61.923 6.27369C61.7439 6.80844 61.3874 7.26804 60.9706 7.53978C60.4096 7.91375 59.7211 7.95657 59.2283 7.95657C58.7355 7.95657 58.0548 7.91375 57.486 7.53978C57.4371 7.50833 57.389 7.47512 57.3418 7.43843C57.2885 7.39736 57.2361 7.3528 57.1854 7.30474C57.1313 7.25319 57.0788 7.19901 57.0282 7.14134C56.8158 6.89669 56.642 6.59786 56.5336 6.27369L58.0208 5.69526C58.0802 5.99234 58.2252 6.23088 58.4035 6.37505C58.5992 6.5367 58.8456 6.63893 59.2196 6.63893C59.3113 6.63893 59.3952 6.63281 59.473 6.62145L59.5175 6.61446L59.5612 6.60573L59.6198 6.59087L59.6783 6.5734C59.8181 6.52709 59.9334 6.45893 60.0357 6.37505C60.2139 6.23088 60.359 5.99234 60.4184 5.69526L61.923 6.27369ZM67.4391 15.6833V18.8874H69.5982V15.6833H69.6829C71.1875 15.6833 72.0202 15.062 72.403 14.6881C72.5996 14.495 72.7953 14.2486 72.9578 13.9419C72.9858 13.8894 73.0128 13.8353 73.0382 13.7793L73.0836 13.6762C73.1404 13.5391 73.1902 13.3923 73.2313 13.2341C73.282 13.041 73.3187 12.8322 73.3388 12.6059C73.344 12.5421 73.3484 12.4774 73.351 12.411C73.3536 12.3516 73.3545 12.2922 73.3545 12.2319C73.3545 11.802 73.2898 11.4237 73.1841 11.0934C73.0906 10.7998 72.9639 10.5447 72.8197 10.3253C72.7857 10.2729 72.7498 10.2222 72.7131 10.1733L72.6817 10.1322L72.6275 10.065C72.4921 9.89983 72.3488 9.7609 72.2072 9.64818C71.5528 9.12916 70.5672 8.84868 69.6917 8.84868H69.5894V5.66992H67.4478V8.84868H67.3456C66.4613 8.84868 65.4836 9.12916 64.8291 9.64818C64.2769 10.0903 63.6819 10.923 63.6819 12.2319C63.6819 13.4386 64.1581 14.2293 64.6343 14.6881C65.0161 15.062 65.8497 15.6833 67.3535 15.6833H67.4391ZM67.0048 10.6198C67.1796 10.5814 67.3622 10.5656 67.5413 10.5744V13.9576C66.997 13.9742 66.4867 13.7706 66.2062 13.4561C65.9511 13.1922 65.7728 12.7588 65.7728 12.2406C65.7728 11.7138 65.9511 11.2882 66.2062 11.0331C66.4028 10.8313 66.6911 10.6888 67.0048 10.6198ZM70.8136 13.4648C70.5331 13.7706 70.0316 13.9829 69.4793 13.9663V10.5831C69.8236 10.5595 70.1766 10.6364 70.4658 10.7893C70.5969 10.8592 70.7157 10.944 70.8136 11.0418C70.9298 11.158 71.0303 11.311 71.1054 11.4918C71.1945 11.7094 71.247 11.9663 71.247 12.2485C71.247 12.7675 71.0687 13.2009 70.8136 13.4648ZM77.7417 18.8874V15.6833H77.656C77.172 15.6833 76.7578 15.6186 76.4048 15.519C76.2117 15.4648 76.0378 15.3993 75.8814 15.3285C75.4341 15.1258 75.1282 14.8759 74.9369 14.6881C74.8713 14.6252 74.8058 14.5561 74.742 14.4801C74.6861 14.4146 74.6311 14.3438 74.5786 14.2687C74.4554 14.0922 74.341 13.8886 74.2466 13.6561C74.1409 13.3966 74.0605 13.1013 74.0177 12.7675C74.0046 12.667 73.995 12.5622 73.9897 12.4547C73.9862 12.3822 73.9845 12.3079 73.9845 12.2319C73.9845 10.923 74.5795 10.0903 75.1317 9.64818C75.7862 9.12916 76.7639 8.84868 77.6482 8.84868H77.7504V5.66992H79.892V8.84868H79.9942C80.266 8.84868 80.5482 8.87577 80.8278 8.9282C80.9694 8.95441 81.11 8.98761 81.249 9.02781C81.3713 9.06276 81.491 9.10295 81.6081 9.14751C81.9419 9.27596 82.2512 9.44372 82.5098 9.64818C83.0629 10.0903 83.6571 10.923 83.6571 12.2319C83.6571 12.7125 83.5819 13.1249 83.4613 13.4779C83.353 13.7942 83.208 14.0624 83.0481 14.287C82.938 14.4408 82.8217 14.5736 82.7055 14.6881C82.4609 14.9275 82.031 15.2682 81.3582 15.4823C81.1791 15.5391 80.9825 15.5872 80.7684 15.6221C80.5307 15.6614 80.2703 15.6833 79.9855 15.6833H79.9007V18.8874H77.7417ZM77.8439 10.5744C77.3424 10.549 76.8146 10.7185 76.5088 11.0331C76.2536 11.2882 76.0754 11.7138 76.0754 12.2406C76.0754 12.7588 76.2536 13.1922 76.5088 13.4561C76.7893 13.7706 77.2995 13.9742 77.8439 13.9576V10.5744ZM79.781 13.9663C80.3341 13.9829 80.8357 13.7706 81.1162 13.4648C81.2516 13.325 81.3652 13.1371 81.4421 12.9143C81.5102 12.7168 81.5495 12.4923 81.5495 12.2485C81.5495 11.7304 81.3713 11.297 81.1162 11.0418C80.8016 10.7273 80.2826 10.549 79.781 10.5831V13.9663ZM91.8338 8.95091H89.6922V9.69886C89.0797 8.86616 88.1701 8.72985 87.6091 8.72985C86.6917 8.72985 85.8843 9.06101 85.3059 9.63944C84.6942 10.2511 84.2774 11.2035 84.2774 12.3167C84.2774 12.8741 84.3875 13.4281 84.647 13.948C84.7956 14.2451 84.9931 14.5299 85.2465 14.799C85.9778 15.5723 86.7764 15.81 87.7288 15.81C88.281 15.81 89.1137 15.6745 89.6922 14.7816V15.5811H91.8338V8.95091ZM86.4793 12.2572C86.4793 11.9811 86.5379 11.7496 86.6226 11.5582C86.7205 11.3363 86.8533 11.1694 86.9721 11.0506C87.2526 10.7701 87.686 10.5744 88.1369 10.5831C88.5274 10.5831 89.0036 10.7273 89.3261 11.0418C89.6406 11.3389 89.8197 11.781 89.8197 12.2572C89.8197 12.8269 89.5812 13.2437 89.3007 13.5067C89.0202 13.7872 88.6209 13.9655 88.1875 13.9655C87.6773 13.9655 87.2185 13.7619 86.9206 13.4473C86.8306 13.3451 86.7249 13.2027 86.6392 13.0166C86.5475 12.8165 86.4793 12.5648 86.4793 12.2572ZM95.2677 8.95091V12.7422L98.0899 8.95091H100.08V15.5811H97.937V11.7304L95.1148 15.5811H93.1261V8.95091H95.2677ZM99.2975 6.27369C99.2145 6.52184 99.093 6.75339 98.9454 6.95785C98.8423 7.10115 98.726 7.23047 98.6002 7.34318C98.519 7.41658 98.4333 7.48211 98.3451 7.53978C98.2027 7.63415 98.0524 7.70755 97.8986 7.76521C97.7221 7.83075 97.5421 7.87443 97.3656 7.90327C97.0912 7.94783 96.8265 7.95657 96.6028 7.95657C96.11 7.95657 95.4293 7.91375 94.8605 7.53978C94.4437 7.2759 94.0863 6.80844 93.9081 6.27369L95.3952 5.69526C95.4547 5.99234 95.5997 6.23088 95.778 6.37505C95.8758 6.45544 95.9859 6.52097 96.1187 6.56641C96.2515 6.61272 96.4071 6.63893 96.5941 6.63893C96.968 6.63893 97.2144 6.5367 97.4102 6.37505C97.501 6.30166 97.5832 6.20379 97.6504 6.08583C97.7142 5.97225 97.764 5.84118 97.7929 5.69526L99.2975 6.27369ZM102.255 8.96752C101.898 9.10382 101.439 9.34149 101.159 9.52061L101.991 10.9571C102.205 10.778 102.426 10.6425 102.706 10.5237C102.987 10.404 103.241 10.3446 103.582 10.3446C103.938 10.3446 104.15 10.4215 104.253 10.4643C104.406 10.5333 104.491 10.6285 104.535 10.7194C104.565 10.785 104.576 10.8479 104.576 10.8977C104.576 11.0252 104.516 11.2201 104.261 11.3389C104.192 11.3712 104.101 11.3948 104.002 11.4123C103.81 11.4473 103.591 11.4586 103.462 11.4586H102.85V12.9117H103.649C103.887 12.9117 104.244 12.9545 104.423 13.0305C104.507 13.0672 104.577 13.1135 104.629 13.1721C104.698 13.249 104.738 13.3468 104.738 13.4727C104.738 13.5696 104.718 13.6963 104.63 13.8126C104.586 13.8702 104.524 13.9261 104.44 13.9742C104.227 14.093 103.904 14.1358 103.666 14.1358C103.441 14.1358 103.194 14.1 102.973 14.0432C102.851 14.0118 102.738 13.9742 102.638 13.9323C102.374 13.8126 102.059 13.6002 101.822 13.3966L100.912 14.8078C100.996 14.8751 101.134 14.9834 101.318 15.1022C101.403 15.1573 101.498 15.2149 101.601 15.2717C101.751 15.3539 101.92 15.4343 102.102 15.5042C102.697 15.7252 103.318 15.8021 103.913 15.8021C105.018 15.8021 105.791 15.6405 106.352 15.0883C106.572 14.8672 106.718 14.6313 106.808 14.3927C106.895 14.1621 106.93 13.9279 106.93 13.7025C106.93 13.6439 106.928 13.5862 106.923 13.5303C106.919 13.4945 106.916 13.4587 106.911 13.4237L106.898 13.3503C106.844 13.0742 106.718 12.8296 106.489 12.6059C106.395 12.5124 106.088 12.2485 105.596 12.1297C105.646 12.1113 105.696 12.0886 105.745 12.0633C105.786 12.0423 105.825 12.0187 105.865 11.9934L105.915 11.9593C105.95 11.9348 105.984 11.9086 106.018 11.8815C106.067 11.8422 106.113 11.7994 106.157 11.7557C106.48 11.4158 106.556 11.0418 106.556 10.6251C106.556 10.4984 106.546 10.3734 106.524 10.252C106.511 10.1855 106.495 10.12 106.474 10.0554C106.4 9.82556 106.271 9.60886 106.063 9.40964C105.392 8.75519 104.177 8.72985 103.819 8.72985C103.309 8.72985 102.757 8.78927 102.255 8.96752ZM114.682 12.64H109.735C109.735 12.7632 109.751 12.9012 109.784 13.041C109.845 13.3049 109.963 13.5758 110.135 13.7697C110.22 13.8641 110.314 13.9384 110.413 13.9952C110.482 14.0354 110.553 14.0677 110.625 14.093C110.837 14.169 111.053 14.1865 111.231 14.1865C111.349 14.1865 111.469 14.1778 111.584 14.1603C111.774 14.1306 111.951 14.0756 112.089 13.9908C112.115 13.9742 112.37 13.8126 112.548 13.4386L114.572 13.643C114.274 14.578 113.679 15.0708 113.296 15.3084C112.659 15.6911 111.945 15.8012 111.197 15.8012C110.202 15.8012 109.327 15.623 108.553 14.8497C107.976 14.2713 107.559 13.3958 107.559 12.2913C107.559 11.3389 107.899 10.362 108.571 9.67352C108.968 9.27508 109.417 9.03742 109.859 8.89936C110.303 8.75956 110.74 8.72111 111.112 8.72111C111.852 8.72111 112.922 8.85742 113.747 9.71546C114.538 10.549 114.682 11.5853 114.682 12.4102V12.64ZM112.71 11.3643C112.693 11.3048 112.591 10.8889 112.276 10.591C112.189 10.5097 112.088 10.4381 111.973 10.3795C111.899 10.3411 111.819 10.3087 111.734 10.2834C111.592 10.2406 111.436 10.217 111.265 10.217C111.08 10.217 110.922 10.2415 110.785 10.2817C110.51 10.3629 110.318 10.5088 110.177 10.6504C110.015 10.8295 109.862 11.0672 109.803 11.3643H112.71ZM117.793 8.95091H115.651V15.5811H117.793V12.9799H120.19V15.5811H122.332V8.95091H120.19V11.2542H117.793V8.95091Z" fill="white"/>
</svg>
