<svg width="155" height="25" viewBox="0 0 155 25" fill="none" xmlns="http://www.w3.org/2000/svg">
<path d="M68.9998 7.78574L72.257 5.38574H61.457V19.6143H72.257V17.2143H64.5427V13.6143H71.057V11.2143H64.5427V7.78574H68.9998ZM55.5427 7.78574L58.7998 5.38574H46.457V19.6143H52.8855C56.4855 19.6143 58.5427 17.9857 58.5427 15.1572C58.5427 12.4143 56.657 10.9572 53.2284 10.9572H49.457V7.78574H55.5427ZM52.7998 13.2715C54.7712 13.2715 55.6284 13.9572 55.6284 15.2429C55.6284 16.5286 54.6855 17.2143 52.7998 17.2143H49.5427V13.2715H52.7998ZM80.9141 5.38574H75.0855V19.6143H78.1712V15.5857H80.9998C84.7713 15.5857 87.0855 13.6143 87.0855 10.4429C87.0855 7.27146 84.6855 5.38574 80.9141 5.38574ZM80.9141 13.1857H78.1712V7.70003H80.9141C82.8855 7.70003 83.9998 8.64289 83.9998 10.4429C83.9141 12.2429 82.8855 13.1857 80.9141 13.1857ZM41.2284 16.5286C40.3712 16.9572 39.5141 17.2143 38.5712 17.2143C35.8284 17.2143 33.7712 15.2429 33.7712 12.5C33.7712 9.75717 35.7427 7.78574 38.5712 7.78574C39.5998 7.78574 40.5427 8.1286 41.3998 8.64289L43.6284 7.01432L43.457 6.84289C42.1712 5.7286 40.457 5.1286 38.4855 5.1286C36.3427 5.1286 34.457 5.81432 32.9998 7.18574C31.6284 8.55717 30.7712 10.4429 30.857 12.4143C30.857 14.3857 31.6284 16.2715 32.9998 17.7286C34.457 19.1 36.4284 19.8715 38.3998 19.7857C40.6284 19.7857 42.5141 19.0143 43.8855 17.6429L41.9141 16.1857L41.2284 16.5286ZM133.714 11.2143H127.114V5.38574H124.028V19.6143H127.114V13.7857H133.714V19.6143H136.8V5.38574H133.714V11.2143ZM112.886 5.38574L106.714 19.6143H109.8L111 16.7857H117.514L118.714 19.6143H121.971L115.971 5.38574H112.886ZM112.028 14.3857L114.428 8.64289L116.657 14.3857H112.028ZM147.943 12.2429L153.514 5.38574H150L145.371 11.4715H143.657V5.38574H140.571V19.6143H143.657V13.8715H145.628L150.343 19.6143H154.286L147.943 12.2429ZM100.286 10.9572H96.5141V7.78574H104.571V5.38574H93.4284V19.6143H99.857C103.457 19.6143 105.514 17.9857 105.514 15.1572C105.6 12.4143 103.714 10.9572 100.286 10.9572ZM99.7713 17.3H96.5141V13.3572H99.7713C101.743 13.3572 102.6 14.0429 102.6 15.3286C102.686 16.6143 101.657 17.3 99.7713 17.3Z" fill="#F7F8FB"/>
<path d="M20.9836 5.11255C21.54 5.84166 22.0111 6.63378 22.3873 7.47299L11.7168 15.4447L7.25732 12.6116V9.20324L11.7168 12.0363L20.9836 5.11255Z" fill="#F7F8FB"/>
<path d="M2.70625 12.371C2.70625 12.218 2.70993 12.0661 2.71729 11.915L0.0147187 11.7808C0.00552 11.9766 3.26593e-06 12.1742 3.26593e-06 12.3737C-0.0011466 13.9323 0.301349 15.4757 0.890146 16.9155C1.47894 18.3553 2.34244 19.6632 3.43111 20.7639L5.34811 18.8221C4.51009 17.9762 3.84528 16.9708 3.3919 15.8637C2.93852 14.7566 2.70551 13.5696 2.70625 12.371Z" fill="#F7F8FB"/>
<path d="M11.7146 3.24222C11.8654 3.24222 12.0153 3.24781 12.1643 3.25527L12.2996 0.515396C12.1058 0.506073 11.9108 0.501413 11.7146 0.501413C10.176 0.499511 8.65221 0.805636 7.2307 1.40221C5.80919 1.99878 4.51796 2.87405 3.43115 3.97777L5.34815 5.92056C6.18283 5.07099 7.17498 4.39699 8.26757 3.93735C9.36015 3.4777 10.5316 3.24146 11.7146 3.24222Z" fill="#F7F8FB"/>
<path d="M11.7143 21.5007C11.5635 21.5007 11.4135 21.5007 11.2636 21.4886L11.1284 24.2276C11.3228 24.2375 11.5181 24.2425 11.7143 24.2425C13.2523 24.2441 14.7753 23.9378 16.1961 23.3411C17.6169 22.7443 18.9072 21.8689 19.9932 20.7652L18.0799 18.8234C17.2451 19.6725 16.253 20.3461 15.1606 20.8056C14.0683 21.2651 12.8971 21.5013 11.7143 21.5007Z" fill="#F7F8FB"/>
<path d="M16.7923 4.83497L19.0699 3.13361C16.9882 1.42523 14.3896 0.495258 11.7109 0.500018V3.24175C13.5248 3.23947 15.2966 3.79501 16.7923 4.83497Z" fill="#F7F8FB"/>
<path d="M23.4282 12.3714C23.4297 11.6582 23.3681 10.9462 23.2442 10.244L20.7229 12.1272C20.7229 12.2083 20.7229 12.2894 20.7229 12.3714C20.7235 13.647 20.4597 14.9085 19.9485 16.0741C19.4373 17.2397 18.6901 18.2834 17.7554 19.1376L19.574 21.1747C20.7892 20.0628 21.7602 18.7047 22.4242 17.1882C23.0882 15.6716 23.4303 14.0305 23.4282 12.3714Z" fill="#F7F8FB"/>
<path d="M11.7146 21.5012C10.4559 21.5016 9.21111 21.2341 8.06081 20.716C6.91058 20.198 5.8805 19.4408 5.03731 18.4937L3.02832 20.3358C4.12522 21.5676 5.46533 22.5519 6.96175 23.225C8.45816 23.898 10.0774 24.2448 11.7146 24.2428V21.5012Z" fill="#F7F8FB"/>
<path d="M5.67375 5.60489L3.85609 3.56793C2.64055 4.67952 1.66913 6.03763 1.00483 7.55418C0.34053 9.07072 -0.0018111 10.7118 7.20546e-06 12.3711H2.70626C2.7057 11.0956 2.96958 9.83412 3.48077 8.66851C3.99198 7.50294 4.7391 6.45918 5.67375 5.60489Z" fill="#F7F8FB"/>
</svg>
