<svg width="160" height="28" viewBox="0 0 160 28" fill="none" xmlns="http://www.w3.org/2000/svg">
<path d="M0 0H27.3659V13.9367C27.3659 17.5105 25.462 20.8053 22.3664 22.599L13.6829 27.714L5.00871 22.599C1.91314 20.8187 0.0132855 17.5105 0.0132855 13.9367V0H0Z" fill="#FFDD2D"/>
<path fill-rule="evenodd" clip-rule="evenodd" d="M7.36768 7.33594V11.667C7.96554 11.0028 9.04167 10.551 10.264 10.551H11.6058V15.5863C11.6058 16.9281 11.2471 18.0973 10.7024 18.7483H16.6616C16.1169 18.0973 15.788 16.9281 15.788 15.5863V10.551H17.0931C18.3287 10.551 19.4135 11.0028 19.9981 11.667V7.33594H7.36768Z" fill="#333333"/>
<path d="M152.618 6.71484H149.46V7.882C145.036 7.97725 142.092 9.85077 142.092 13.1571C142.092 16.4633 145.036 18.1917 149.46 18.2868V19.4541H152.618V18.2868C157.066 18.1917 160 16.4633 160 13.1571C160 9.85077 157.066 7.97725 152.618 7.882V6.71484ZM149.46 15.8072C147.031 15.7119 145.66 14.7151 145.66 13.1571C145.66 11.5991 147.026 10.482 149.46 10.3868V15.8072ZM152.618 10.3868C155.072 10.482 156.404 11.6041 156.404 13.1571C156.404 14.71 155.072 15.7119 152.618 15.8072V10.3868Z" fill="white"/>
<path d="M133.672 6.71484H130.514V7.882C126.09 7.97725 123.146 9.85077 123.146 13.1571C123.146 16.4633 126.09 18.1917 130.514 18.2868V19.4541H133.672V18.2868C138.12 18.1917 141.054 16.4633 141.054 13.1571C141.054 9.85077 138.12 7.97725 133.672 7.882V6.71484ZM130.514 15.8072C128.085 15.7119 126.715 14.7151 126.715 13.1571C126.715 11.5991 128.08 10.482 130.514 10.3868V15.8072ZM133.672 10.3868C136.126 10.482 137.458 11.6041 137.458 13.1571C137.458 14.71 136.126 15.7119 133.672 15.8072V10.3868Z" fill="white"/>
<path d="M114.542 7.05469C109.804 7.05469 106.958 9.72981 106.958 13.1813C106.958 16.6329 109.804 19.308 114.542 19.308C119.281 19.308 122.101 16.6329 122.101 13.1813C122.101 9.72981 119.256 7.05469 114.542 7.05469ZM114.542 16.4876C112.182 16.4876 110.675 15.0799 110.675 13.1813C110.675 11.2827 112.182 9.90011 114.542 9.90011C116.902 9.90011 118.409 11.2878 118.409 13.1813C118.409 15.0749 116.877 16.4876 114.542 16.4876Z" fill="white"/>
<path d="M98.1694 14.5696L102.377 18.9479H107.071L101.21 12.9214L106.85 7.38086H102.427L98.1743 11.7341H97.2025V7.38086H93.6758V18.953H97.2025V14.5746H98.1743L98.1694 14.5696Z" fill="white"/>
<path d="M87.1362 18.945C87.9377 18.945 88.6691 18.8699 89.3504 18.6796C91.174 18.1686 92.3662 16.6858 92.3662 14.6669C92.3662 12.648 91.3443 11.4107 89.7162 10.7996C88.9396 10.509 88.0129 10.4839 87.1413 10.4839H83.5194V7.37305H79.9927V18.945H87.1413H87.1362ZM86.5301 13.2091C87.016 13.2091 87.4769 13.2091 87.8927 13.3544C88.4738 13.5497 88.8145 14.0357 88.8145 14.6168C88.8145 15.1979 88.4738 15.734 87.9127 15.9794C87.522 16.1497 87.1362 16.1497 86.5251 16.1497H83.5094V13.2091H86.5251H86.5301Z" fill="white"/>
<path d="M74.3618 14.6458V18.9489H77.8877V7.37695H74.3618V11.9561H68.7841V7.37695H65.2573V18.9489H68.7841V14.6458H74.3618Z" fill="white"/>
<path d="M54.0482 14.1059V7.37305H50.5215V18.945H53.6324L59.6259 12.2123V18.945H63.1519V7.37305H60.0364L54.0482 14.1059Z" fill="white"/>
<path d="M44.5222 18.9474V10.5267H49.4691V7.36914H35.7861V10.5267H40.733V18.9474H44.5222Z" fill="white"/>
</svg>
